<?xml version="1.0" encoding="utf-8"?>
<!-- Generator: Adobe Illustrator 13.0.0, SVG Export Plug-In . SVG Version: 6.00 Build 14948)  -->
<!DOCTYPE svg PUBLIC "-//W3C//DTD SVG 1.1//EN" "http://www.w3.org/Graphics/SVG/1.1/DTD/svg11.dtd">
<svg version="1.1" id="Layer_1" xmlns="http://www.w3.org/2000/svg" xmlns:xlink="http://www.w3.org/1999/xlink" x="0px" y="0px"
	 width="21.201px" height="21.203px" viewBox="0 0 21.201 21.203" enable-background="new 0 0 21.201 21.203" xml:space="preserve">
<path fill="#13A0DB" d="M10.622,17.765"/>
<path fill="#139FDA" d="M18.991,16.313H2.348c-0.967,0-1.752-0.785-1.752-1.753V4.925c0-0.967,0.785-1.752,1.752-1.752h0.438
	c0-0.483,0.393-0.875,0.876-0.875h0.876c0.483,0,0.875,0.392,0.875,0.875H6.29c0,0,0.493-0.055,0.876-0.438L8.042,1.86
	c0,0,0.342-0.438,0.875-0.438h3.504c0.575,0,0.876,0.438,0.876,0.438l0.876,0.875c0.383,0.383,0.876,0.438,0.876,0.438h3.941
	c0.968,0,1.752,0.785,1.752,1.752v9.635C20.743,15.528,19.959,16.313,18.991,16.313 M19.867,4.925c0-0.483-0.393-0.875-0.876-0.875
	l-4.038-0.005c-0.134-0.015-0.828-0.118-1.398-0.689l-0.933-0.933l-0.046-0.066c0,0-0.069-0.058-0.154-0.058H8.917
	c-0.066,0-0.164,0.078-0.186,0.101L8.699,2.441L7.786,3.354C7.214,3.926,6.52,4.029,6.387,4.043L4.569,4.046
	C4.558,4.047,4.548,4.05,4.538,4.05H3.662c-0.006,0-0.011-0.002-0.018-0.002L2.348,4.05c-0.483,0-0.876,0.393-0.876,0.875v9.635
	c0,0.484,0.393,0.877,0.876,0.877h16.643c0.483,0,0.876-0.393,0.876-0.877V4.925z M10.67,14.561c-2.661,0-4.818-2.156-4.818-4.817
	c0-2.661,2.157-4.818,4.818-4.818c2.661,0,4.818,2.157,4.818,4.818C15.488,12.404,13.331,14.561,10.67,14.561 M10.67,5.801
	c-2.178,0-3.942,1.765-3.942,3.942c0,2.178,1.764,3.942,3.942,3.942c2.177,0,3.942-1.765,3.942-3.942
	C14.612,7.566,12.847,5.801,10.67,5.801 M10.67,11.934c-1.21,0-2.19-0.98-2.19-2.19c0-1.209,0.98-2.189,2.19-2.189
	s2.189,0.98,2.189,2.189C12.859,10.953,11.88,11.934,10.67,11.934 M10.67,8.429c-0.726,0-1.314,0.589-1.314,1.314
	c0,0.726,0.588,1.314,1.314,1.314s1.314-0.588,1.314-1.314C11.984,9.018,11.396,8.429,10.67,8.429 M4.538,6.677H2.786
	c-0.242,0-0.438-0.196-0.438-0.438V5.364c0-0.242,0.196-0.438,0.438-0.438h1.752c0.242,0,0.438,0.196,0.438,0.438V6.24
	C4.976,6.481,4.78,6.677,4.538,6.677"/>
</svg>
