<?xml version="1.0" encoding="utf-8"?>
<!-- Generator: Adobe Illustrator 13.0.0, SVG Export Plug-In . SVG Version: 6.00 Build 14948)  -->
<!DOCTYPE svg PUBLIC "-//W3C//DTD SVG 1.1//EN" "http://www.w3.org/Graphics/SVG/1.1/DTD/svg11.dtd">
<svg version="1.1" id="Layer_1" xmlns="http://www.w3.org/2000/svg" xmlns:xlink="http://www.w3.org/1999/xlink" x="0px" y="0px"
	 width="7.229px" height="22.768px" viewBox="0 0 7.229 22.768" enable-background="new 0 0 7.229 22.768" xml:space="preserve">
<path fill="#274B54" d="M13.854,17.846l-6.137-6.173l6.155-6.138v12.309h-0.019V17.846z M-6.09,19.003l6.189-6.189l1.361,1.342
	c0.51,0.512,1.122,0.851,1.87,0.851c0.747,0,1.361-0.339,1.871-0.851l1.361-1.342l6.188,6.189H-6.09z M12.784,4.244l-8.826,8.857
	c-0.17,0.17-0.323,0.272-0.629,0.272c-0.307,0-0.458-0.103-0.628-0.272l-8.825-8.857H12.784z M-7.195,5.536l6.155,6.139
	l-6.155,6.171V5.536z"/>
</svg>
