<?xml version="1.0" encoding="utf-8"?>
<!-- Generator: Adobe Illustrator 13.0.0, SVG Export Plug-In . SVG Version: 6.00 Build 14948)  -->
<!DOCTYPE svg PUBLIC "-//W3C//DTD SVG 1.1//EN" "http://www.w3.org/Graphics/SVG/1.1/DTD/svg11.dtd">
<svg version="1.1" id="Layer_1" xmlns:sketch="http://www.bohemiancoding.com/sketch/ns"
	 xmlns="http://www.w3.org/2000/svg" xmlns:xlink="http://www.w3.org/1999/xlink" x="0px" y="0px" width="24px" height="24px"
	 viewBox="0 0 24 24" enable-background="new 0 0 24 24" xml:space="preserve">
<title></title>
<desc></desc>
<g id="miu">
	<g id="Artboard-1" transform="translate(-395.000000, -299.000000)">
		<g id="slice" transform="translate(215.000000, 119.000000)">
		</g>
		<path id="editor-images-pictures-photos-collection-glyph" fill="#13A0DB" d="M396.141,305c-0.078,0-0.141,0.058-0.141,0.129
			v15.742c0,0.071,0.063,0.129,0.141,0.129h21.719c0.078,0,0.141-0.059,0.141-0.129v-15.742c0-0.071-0.063-0.129-0.141-0.129
			H396.141z M404.312,308.966l3.257,5.624c0.039,0.068,0.127,0.087,0.19,0.042l2.763-1.942c0.129-0.092,0.301-0.06,0.388,0.075
			l5.021,5.858c0.085,0.133,0.023,0.24-0.126,0.24h-17.656c-0.155,0-0.223-0.111-0.149-0.253l6.037-9.641
			C404.108,308.829,404.233,308.83,404.312,308.966z M413.5,310c0.828,0,1.5-0.671,1.5-1.5s-0.672-1.5-1.5-1.5s-1.5,0.671-1.5,1.5
			S412.672,310,413.5,310z M398,301v1h18v-1H398z M397,303v1h20v-1H397z"/>
	</g>
</g>
</svg>
