<?xml version="1.0" encoding="utf-8"?>
<!-- Generator: Adobe Illustrator 13.0.0, SVG Export Plug-In . SVG Version: 6.00 Build 14948)  -->
<!DOCTYPE svg PUBLIC "-//W3C//DTD SVG 1.1//EN" "http://www.w3.org/Graphics/SVG/1.1/DTD/svg11.dtd">
<svg version="1.1" id="Layer_1" xmlns="http://www.w3.org/2000/svg" xmlns:xlink="http://www.w3.org/1999/xlink" x="0px" y="0px"
	 width="21.736px" height="21.736px" viewBox="0 0 21.736 21.736" enable-background="new 0 0 21.736 21.736" xml:space="preserve">
<path fill="#FFFFFF" d="M10.869,0C4.866,0,0,4.867,0,10.869s4.866,10.868,10.869,10.868s10.867-4.865,10.867-10.868
	C21.737,4.867,16.872,0,10.869,0 M10.882,19.855c-4.992,0-9.039-4.047-9.039-9.039c0-4.99,4.047-9.039,9.039-9.039
	c4.991,0,9.039,4.048,9.039,9.039C19.92,15.809,15.874,19.855,10.882,19.855"/>
<path fill="#FFFFFF" d="M14.746,9.918h-2.926l0.004-2.979c-0.013-0.205-0.101-0.612-0.604-0.613l-0.715-0.001
	c-0.535,0-0.581,0.526-0.583,0.666L9.919,9.918H6.928c-0.553,0-0.599,0.426-0.602,0.548v0.819c0.003,0.111,0.048,0.533,0.602,0.533
	h2.99l-0.004,2.989c0,0.552,0.425,0.601,0.548,0.604h0.819c0.111-0.002,0.533-0.049,0.533-0.601l0.004-2.992h2.98
	c0.206-0.013,0.613-0.101,0.613-0.604V10.5C15.412,9.966,14.883,9.921,14.746,9.918"/>
</svg>
