<?xml version="1.0" encoding="utf-8"?>
<!-- Generator: Adobe Illustrator 19.0.0, SVG Export Plug-In . SVG Version: 6.00 Build 0)  -->
<svg version="1.1" id="Capa_1" xmlns="http://www.w3.org/2000/svg" xmlns:xlink="http://www.w3.org/1999/xlink" x="0px" y="0px"
	 viewBox="-222 345.9 150 150" style="enable-background:new -222 345.9 150 150;" xml:space="preserve">
<style type="text/css">
	.st0{fill:#FFFFFF;}
	.st1{fill:#15A0DB;}
</style>
<g>
	<g>
		<path class="st0" d="M-188.5,471.9l25.2-10.8c1.4-0.7,2.5-2.9,3.3-4.5c0.7-1.4-0.3-3.1-1.9-3.1h-17.8c0,0-6.4-0.6-11.4-2.8
			c-2.9-1.2-3.9-2.9-2.1-5.5c5.3-7.6,16.3-25.4,16.7-43.8c0,0,0.6-28.3,28.5-28.5c16.3,0.1,24,9.7,27.6,17.7c2,4.4,2.9,9.3,3.2,14.2
			c1.2,17.5,10.1,33.6,14.2,40.4c1.4,2.3,0.7,5.4-1.6,6.8c-3.8,2.3-8.5,1.5-8.5,1.5H-131c-1.8,0-2.5,2.4-1.1,3.5
			c1.1,0.9,2.2,1.7,2.8,2l20.9,12.7c3,1.6,5.4,4.1,7.1,7c-12.6,10.2-28.5,16.2-45.9,16.2c-18.2,0-34.7-6.6-47.5-17.6
			C-193.3,475.1-191.1,473.2-188.5,471.9z"/>
		<g>
			<path class="st1" d="M-147,348.7c-40.4,0-73.2,32.8-73.2,73.2c0,22.1,9.9,42,25.4,55.4c1.7-2.2,3.8-4,6.3-5.3l25.2-10.8
				c1.4-0.7,2.5-2.9,3.3-4.5c0.7-1.4-0.3-3.1-1.9-3.1h-17.8c0,0-6.4-0.6-11.4-2.8c-2.9-1.2-3.9-2.9-2.1-5.5
				c5.3-7.6,16.3-25.4,16.7-43.8c0,0,0.6-28.3,28.5-28.5c16.3,0.1,24,9.7,27.6,17.7c2,4.4,2.9,9.3,3.2,14.2
				c1.2,17.5,10.1,33.6,14.2,40.4c1.4,2.3,0.7,5.4-1.6,6.8c-3.8,2.3-8.5,1.5-8.5,1.5H-131c-1.8,0-2.5,2.4-1.1,3.5
				c1.1,0.9,2.2,1.7,2.8,2l20.9,12.7c3,1.6,5.4,4.1,7,6.9c0.1,0.1,0.2,0.1,0.2,0.2c16.7-13.4,27.4-34,27.4-57.1
				C-73.8,381.4-106.6,348.7-147,348.7z"/>
		</g>
	</g>
</g>
</svg>
