<?xml version="1.0" standalone="no"?>
<!DOCTYPE svg PUBLIC "-//W3C//DTD SVG 1.1//EN" "http://www.w3.org/Graphics/SVG/1.1/DTD/svg11.dtd">
<svg xmlns="http://www.w3.org/2000/svg">
<metadata>Generated by Fontastic.me</metadata>
<defs>
<font id="untitled-font-1" horiz-adv-x="512">
<font-face font-family="untitled-font-1" units-per-em="512" ascent="480" descent="-32"/>
<missing-glyph horiz-adv-x="512" />

<glyph glyph-name="actions" unicode="&#101;" d="M142 175l32 0c22 123 129 218 259 218 6 0 11 0 16 0l-57-57c-6-7-6-17 0-23 3-3 7-4 11-4 4 0 8 1 11 4l92 95-92 94c-6 7-16 7-22 0-6-6-6-16 0-22l57-56c-6 0-10 0-15 0-147 0-269-108-292-249z m318 98c-9 0-16-6-16-15l0-218-405 0 0 311 141 0c8 0 15 7 15 16 0 8-7 16-15 16l-141 0c-17 0-31-14-31-31l0-312c0-17 14-31 31-31l405 0c17 0 31 14 31 31l0 218c0 8-7 15-15 15z"/>
<glyph glyph-name="actions1" unicode="&#102;" d="M134 469c-37 0-66-29-66-66 0-24 13-45 33-57l0-216c-20-12-33-33-33-57 0-37 29-67 66-67 36 0 66 30 66 67 0 24-13 45-33 57l0 216c20 12 33 33 33 57 0 37-30 66-66 66z m0-429c-18 0-33 15-33 33 0 18 14 33 33 33 18 0 33-15 33-33 0-18-15-33-33-33z m0 330c-18 0-33 15-33 33 0 19 14 33 33 33 18 0 33-14 33-33 0-18-15-33-33-33z m297-240l0 207c0 100-99 99-99 99l-33 0 0 66-99-99 99-99 0 66c0 0 14 0 33 0 29 0 33-33 33-33l0-207c-20-12-33-33-33-57 0-37 30-67 66-67 37 0 67 30 67 67-1 24-14 45-34 57z m-33-90c-18 0-33 15-33 33 0 18 15 33 33 33 18 0 33-15 33-33 0-18-15-33-33-33z"/>
<glyph glyph-name="add" unicode="&#103;" d="M256 512c-141 0-256-115-256-256 0-141 115-256 256-256 142 0 256 115 256 256 0 141-114 256-256 256z m1-468c-118 0-213 96-213 213 0 118 95 213 213 213 117 0 213-95 213-213 0-117-96-213-213-213z m90 235l-68 0 0 69c0 5-3 15-14 15l-17 0c-13 0-14-12-14-16l0-69-70 0c-13 0-14-10-15-13l0-19c0-3 1-13 15-13l70 0 0-70c0-13 10-14 13-15l19 0c3 0 13 2 13 14l0 71 70 0c5 0 15 2 15 14l0 17c-1 13-13 14-17 15z"/>
<glyph glyph-name="android" unicode="&#104;" d="M327 466l5 8 6 8 12 18c1 2 1 5-1 7-3 1-6 1-7-1l-13-20-5-8-6-8c-17 6-37 10-58 10-20 0-40-4-57-10l-6 8-6 8-12 20c-2 2-5 2-7 1-3-1-3-5-2-7l12-18 11-16c-41-20-69-56-69-97l272 0c0 41-28 77-69 97z m-125-59c-8 0-15 7-15 15 0 8 7 15 15 15 8 0 15-7 15-15 0-8-7-15-15-15z m116 0c-8 0-14 7-14 15 0 8 6 15 14 15 9 0 15-7 15-15 0-8-6-15-15-15z m-192-58l-2 0 0-213c0-18 14-31 31-31l22 0c-1-3-1-5-1-8l0-62c0-16 13-29 29-29 16 0 29 13 29 29l0 62c0 2 0 5-1 8l54 0c-1-3-1-5-1-8l0-62c0-16 13-29 29-29 16 0 29 13 29 29l0 62c0 2 0 5-1 8l22 0c17 0 31 13 31 31l0 213z m-50 0c-16 0-29-13-29-29l0-124c0-16 13-29 29-29 16 0 29 13 29 29l0 124c0 16-13 29-29 29z m369 0c-16 0-29-13-29-29l0-124c0-16 13-29 29-29 16 0 29 13 29 29l0 124c0 16-13 29-29 29z"/>
<glyph glyph-name="calander" unicode="&#105;" d="M464 464l-67 0 0 31c0 8-7 15-15 15-9 0-15-7-15-15l0-31-93 0 0 31c0 8-7 15-16 15-8 0-15-7-15-15l0-31-92 0 0 31c0 8-7 15-16 15-8 0-15-7-15-15l0-31-67 0c-23 0-41-18-41-41l0-365c0-23 18-41 41-41l411 0c23 0 41 18 41 41l0 365c0 23-18 41-41 41z m10-406c0-6-4-10-10-10l-411 0c-6 0-10 5-10 10l0 365c0 6 4 10 10 10l67 0 0-30c0-9 7-16 15-16 9 0 16 7 16 16l0 30 92 0 0-30c0-9 7-16 15-16 9 0 16 7 16 16l0 30 92 0 0-30c0-9 7-16 16-16 8 0 15 7 15 16l0 30 67 0c6 0 10-4 10-10z m-354 268l62 0 0-47-62 0z m0-78l62 0 0-46-62 0z m0-77l62 0 0-46-62 0z m108 0l61 0 0-46-61 0z m0 77l61 0 0-46-61 0z m0 78l61 0 0-47-61 0z m108-155l61 0 0-46-61 0z m0 77l61 0 0-46-61 0z m0 78l61 0 0-47-61 0z"/>
<glyph glyph-name="call" unicode="&#106;" d="M242 200c-42 34-69 76-84 101l-11 20c4 4 33 35 46 52 15 21-8 40-8 40 0 0-64 65-79 78-14 13-31 6-31 6-31-20-63-38-65-121 0-78 59-159 123-221 64-71 152-141 238-141 83 2 100 33 121 65 0 0 7 17-6 31-13 15-77 79-77 79 0 0-20 23-41 8-15-12-44-38-51-45 0 0-47 25-75 48z"/>
<glyph glyph-name="checking" unicode="&#108;" d="M37 101l-29 0c0-41 33-74 74-74l0 29c-25 0-45 20-45 45m0 158l-29 0 0-59 29 0z m-29 99l29 0c0 25 20 45 45 45l0 29c-41 0-74-33-74-74m29-178l-29 0 0-59 29 0 0 59z m0 156l-29 0 0-59 29 0 0 59z m377-26c-8-11-17-22-25-33l25 0z m-96 97l0 25-59 0 0-29 54 0c2 1 3 3 5 4m-215-381l59 0 0 29-59 0z m283 95l29 0 0 59-29 0z m-46-65l0-29c41 0 74 33 74 74l-29 0c0-25-20-45-45-45m46 144l29 0 0 59-29 0z m-283 203l59 0 0 29-59 0z m79 0l59 0 0 29-59 0z m0-377l59 0 0 29-59 0z m77 0l59 0 0 29-59 0z m230 461c-135-83-233-188-278-241l-108 85-48-38 187-191c32 83 134 244 259 358z"/>
<glyph glyph-name="delete" unicode="&#109;" d="M358 6l-203 0c-42 0-74 34-74 74l0 228c0 7 5 13 12 13 8 0 13-6 13-13l0-228c0-27 22-49 49-49l203 0c28 0 50 23 50 49l0 228c0 7 5 13 12 13 8 0 13-6 13-13l0-228c-1-40-34-74-75-74z m67 441l-96 0c-6 36-36 62-72 62-36 0-67-26-73-62l-96 0c-29 0-51-22-51-51 0-29 22-50 51-50l338 0c29 0 52 22 52 51 0 29-24 50-53 50z m-168 37c22 0 41-15 46-37l-94 0c6 22 25 37 48 37z m168-113l-337 0c-14 0-26 11-26 26 0 14 11 26 26 26l338 0c14 0 27-11 27-26-1-15-13-26-28-26z m-256-303c-8 0-13 5-13 12l0 210c0 8 5 13 13 13 7 0 12-5 12-13l0-210c0-6-6-12-12-12z m175 0c-7 0-12 5-12 12l0 210c0 8 5 13 12 13 8 0 13-5 13-13l0-210c0-6-6-12-13-12z m-87 0c-8 0-13 5-13 12l0 210c0 8 5 13 13 13 7 0 12-5 12-13l0-210c0-6-6-12-12-12z"/>
<glyph glyph-name="door" unicode="&#110;" d="M29 488l0-476 324 0 0 130-43 0 0-87-238 0 0 389 238 0 0-86 43 0 0 130z m338-162l30 31 107-107-107-107-30 30 55 55-242 0 0 44 242 0z"/>
<glyph glyph-name="edit" unicode="&#111;" d="M489 444l-44 44c-12 13-28 19-44 19-16 0-32-6-45-19l-269-269c-13-12-50-60-50-76l-32-139 139 32c0 0 64 37 76 50l269 269c25 25 25 64 0 89z m-442-398l20 90c1 1 1 3 1 4 0 0 0 0 0 0l71-71c-2-1-5-2-7-4z m151 62c-4-4-16-12-31-22l-82 82c9 12 18 23 24 29l203 203 88-89z m269 270l-44-45-89 89 45 44c5 6 13 9 22 9 8 0 16-3 22-9l44-44c6-6 10-14 10-22 0-9-4-17-10-22z"/>
<glyph glyph-name="others" unicode="&#112;" d="M338 189l-38 0 0-28 38 0 0-37 28 0 0 37 37 0 0 28-37 0 0 37-28 0z m86 118c48 0 79-40 79-81l0-146c0-37-48-37-48 0l0 142-23 0 0-179-161 0 0 179-23 0 0-142c0-37-48-37-48 0l0 147c0 44 35 80 78 80z m-214 76c36 0 62-26 69-56-22 0-42-7-57-18l-4-4c-23-18-37-46-37-78l0-76-106 0 0 158-20 0 0-125c0-32-43-32-43 0l0 129c0 39 31 70 69 70l129 0z m142-64c-34 0-62 28-62 62 0 34 28 61 62 61 34 0 61-27 61-61 0-34-27-62-61-62z m-206 76c-30 0-54 24-54 54 0 30 25 54 54 54 30 0 54-25 54-54 0-30-24-54-54-54z"/>
<glyph glyph-name="newletter" unicode="&#115;" d="M458 503l-340 0c-26 0-47-20-47-46l0-31-15 0c-26 0-46-21-46-46l0-310c0-34 27-61 61-61l372 0c34 0 61 27 61 61l0 387c0 26-20 46-46 46z m15-433c0-17-14-31-31-31l-371 0c-17 0-31 14-31 31l0 310c0 8 7 15 16 15l15 0 0-309c0-9 7-16 15-16 9 0 16 7 16 16l0 371c0 9 7 15 15 15l340 0c9 0 16-6 16-15l0-387z m-162 232l124 0c4 0 8 4 8 8 0 5-4 8-8 8l-124 0c-4 0-8-3-8-8 0-4 4-8 8-8z m0 47l124 0c4 0 8 3 8 8 0 4-4 8-8 8l-124 0c-4 0-8-4-8-8 0-5 4-8 8-8z m0 46l124 0c4 0 8 4 8 8 0 5-4 8-8 8l-124 0c-4 0-8-3-8-8 0-4 4-8 8-8z m-46-309l-124 0c-4 0-8-4-8-8 0-5 4-8 8-8l124 0c4 0 8 3 8 8-1 4-4 8-8 8z m0 46l-124 0c-4 0-8-3-8-8 0-4 4-8 8-8l124 0c4 0 8 4 8 8-1 5-4 8-8 8z m0 47l-124 0c-4 0-8-4-8-8 0-5 4-8 8-8l124 0c4 0 8 3 8 8-1 4-4 8-8 8z m170-93l-124 0c-4 0-8-4-8-8 0-5 4-8 8-8l124 0c4 0 8 3 8 8-1 4-4 8-8 8z m0 46l-124 0c-4 0-8-3-8-8 0-4 4-8 8-8l124 0c4 0 8 4 8 8-1 5-4 8-8 8z m0 47l-124 0c-4 0-8-4-8-8 0-5 4-8 8-8l124 0c4 0 8 3 8 8-1 4-4 8-8 8z m0 92l-294 0c-4 0-8-3-8-7 0-5 4-8 8-8l294 0c4 0 8 3 8 8 0 4-4 7-8 7z m0-46l-294 0c-4 0-8-3-8-8 0-4 4-8 8-8l294 0c4 0 8 4 8 8-1 5-4 8-8 8z m-287 77l109 0c8 0 15 7 15 16l0 108c0 9-7 15-15 15l-109 0c-8 0-15-6-15-15l0-108c0-9 7-16 15-16z m16 109l78 0 0-78-78 0z"/>
<glyph glyph-name="milk" unicode="&#116;" d="M348 396c3 4 4 10 4 15 0 15-12 28-28 28l-27 0c0 0 0 1 0 1l0 35c0 21-16 37-37 37-20 0-36-16-36-37l0-35c0 0 0-1 0-1l-27 0c-16 0-28-13-28-28 0-5 1-11 4-15-22-11-36-34-36-59l0-264c0-37 30-67 67-67l113 0c38 0 68 30 68 67l0 264c0 25-15 48-37 59z m-31-363l-113 0c-22 0-41 18-41 41l0 263c0 22 18 40 41 40l113 0c22 0 41-18 41-40l0-38-54 0c-6 0-12-5-12-12 0-7 5-13 12-13l53 0 0-58-53 0c-6 0-12-5-12-12 0-7 5-13 12-13l53 0 0-59-53 0c-6 0-12-6-12-13 0-7 5-13 12-13l53 0 0-33c1-22-17-40-40-40z"/>
<glyph glyph-name="message" unicode="&#117;" d="M506 106l-145 146 146 145 0-291z m-471-27l146 146 32-32c12-12 27-20 44-20 18 0 32 8 45 20l32 32 146-146z m446 348l-209-209c-4-4-7-6-15-6-7 0-11 2-15 6l-208 209z m-472-30l145-145-145-146z"/>
<glyph glyph-name="medi" unicode="&#118;" d="M23 31c-3 0-5 2-5 4l0 357c0 3 2 5 5 5l110 0 0 75c0 0 0 7 5 13 5 7 10 10 20 10 2 0 14 0 56 0 58 0 140 0 140 0l1 0c0 0 1 0 2 0 3 0 12-1 17-6 8-7 8-11 8-18 0-2 1-13 0-67l0-8 111 0c3 0 5-2 5-4l0-357c0-2-2-4-5-4z m178 79c0-11 9-21 20-21l75 0c11 0 20 10 20 21l0 44 44 0c11 0 21 9 21 20l0 75c0 11-10 20-21 20l-44 0 0 44c0 11-9 20-21 20l-74 0c-11 0-20-9-20-20l0-44-44 0c-12 0-21-9-21-21l0-74c0-11 9-20 21-20l44 0z m-30 363c-9 0-16-6-16-15l0-61 205 0 0 60c0 1 0 7-4 11-2 2-5 4-11 4l-171 0c-1 0-2 1-3 1z m43 14c58 0 141 0 141 0l1 0c0 0 1 0 1 0 4 0 10-1 12-4 6-5 6-7 6-12 0-2 1-12 0-67l0-16 116 0 0-350-465 0 0 351 115 0 0 83c0 0 0 5 3 8 3 5 6 7 14 7 2 0 14 0 56 0m-66-98l220 0 0 68c0 2 0 10-6 16-4 5-10 7-17 7l-171 0c-1 0-2 1-3 1-14 0-24-10-24-23l0-69m46-112l-36 0c-16 0-28-13-28-28l0-75c0-15 12-28 28-28l36 0 0-36c0-15 13-28 28-28l75 0c15 0 28 13 28 28l0 36 36 0c15 0 28 13 28 28l0 75c0 15-13 28-28 28l-36 0 0 36c0 15-13 28-28 28l-75 0c-15 0-28-13-28-28l0-36m21 225c-29 0-53 0-56 0-12 0-20-4-26-13-7-8-6-18-6-18l0-67-103 0c-7 0-12-5-12-12l0-357c0-6 5-12 12-12l471 0c6 0 12 5 12 12l0 357c0 7-6 12-12 12l-103 0c0 21 0 63 0 68-1 8-2 14-11 23-7 7-18 8-23 8-1 0-2 0-2 0 0 0-83-1-141-1z m-51-98c0 17 0 47 0 54 0 6 5 7 8 7 1 0 2 0 2 0 0 0 165 0 172 0 8 0 8-8 8-8l0-53z m-6-242c-7 0-13 6-13 12l0 75c0 7 6 12 13 12l52 0 0 52c0 7 5 13 12 13l75 0c7 0 12-6 12-13l0-52 52 0c7 0 13-6 13-13l0-74c0-7-6-13-13-13l-52 0 0-51c0-7-6-13-13-13l-74 0c-7 0-12 6-12 13l0 51-52 0z"/>
<glyph glyph-name="meal" unicode="&#119;" d="M9 101c0-13 8-21 20-21l453 0c13 0 21 8 21 21l0 20-494 0z m453 62l41 0c0 130-99 235-227 245l0 23 21 0c12 0 20 8 20 20 0 13-8 21-20 21l-83 0c-12 0-20-8-20-21 0-12 8-20 20-20l21 0 0-23c-128-10-227-115-227-245z m-206 206c99 0 183-70 202-165l-404 0c18 95 103 165 202 165z m93-45l-11-19c31-18 56-45 70-78l19 8c-15 37-43 68-78 89z"/>
<glyph glyph-name="man" unicode="&#120;" d="M259 498c-8 0-17-1-25-3-4-1-8-3-13-5-2 0-3-1-5-2-1 0-1-1-2-1-4-2-8-4-12-7-1 0-2 0-2-1-1 0-2-1-3-3-3-2-7-4-10-7-3-2-5-5-8-8-9-9-16-18-22-29-11-19-19-39-22-61-2 0-3 0-5 0-11-3-13-24-6-45 4-13 11-23 18-29 9-36 29-67 55-86l0-21-20-20-41-21c-33-16-66-33-99-49-19-11-26-33-24-54 1-13-4-29 9-37 12-7 26-3 39-4 39 0 77 0 115 0 55 0 110 0 165 0 48 0 97 0 145 0 16 1 21 18 19 31 0 19 1 41-13 55-13 13-30 18-45 26-22 11-44 21-65 32l-41 21-21 20 0 21c26 19 46 50 55 86 7 6 14 16 19 29 7 21 4 42-7 45-1 0-3 0-4 0-4 22-12 42-22 61-6 11-14 20-23 29-2 3-5 6-8 8 0 0 0 0 0 0-8 7-17 13-27 18-2 1-4 2-7 3-1 0-3 1-5 2-5 2-10 3-16 4 0 0-1 0-1 0-5 2-10 2-15 2z m-246-472c0-6 2-12 9-16 12-7 26-2 39-5l425 0c12 3 18 11 19 21z"/>
<glyph glyph-name="information" unicode="&#121;" d="M332 60l-6-29c-21-8-38-14-51-18-12-5-27-7-43-7-25 0-45 6-59 19-14 12-21 28-21 47 0 7 0 15 1 23 1 7 3 16 5 26l26 92c3 9 5 18 6 26 2 7 3 15 3 21 0 12-3 21-8 25-4 5-14 8-28 8-6 0-13-2-20-4-8-2-14-4-19-6l7 29c17 7 34 13 49 18 16 5 31 8 45 8 25 0 45-7 59-19 13-12 20-28 20-47 0-4 0-12-1-21-1-11-3-20-5-28l-27-93c-2-8-4-16-6-26-2-9-2-17-2-21 0-13 2-21 8-26 5-4 15-6 29-6 6 0 13 1 21 3 8 2 14 4 17 6z m7 388c0-16-6-30-18-41-12-12-27-18-44-18-17 0-32 6-44 18-12 11-18 24-18 41 0 16 6 30 18 41 12 11 27 17 44 17 17 0 32-6 44-17 12-11 18-25 18-41z"/>
<glyph glyph-name="health" unicode="&#122;" d="M481 209c26 33 32 72 13 87-17 14-50 2-76-27-24 7-45 5-63-5-35-19-48-64-53-98-1-6-1-11-2-16-8-60-15-116-85-116-1 0-3 0-4 0-20 1-34 7-43 19-18 23-15 60-13 75 7 3 12 10 13 18l1 30 37 11c8 3 13 10 15 17 30 17 51 40 62 67 30 80-35 172-38 175-1 1-1 2-2 3 2 4 1 8-2 9-4 3-12 13-16 21l-8 15c-5 8-14 10-21 3l-19-18c-7-7-6-16 3-20l13-7c9-5 18-13 21-18 2-4 8-5 13-2 5-8 58-89 34-153-9-22-25-40-51-54-5 2-10 3-16 2l-45-14-49 15c-5 2-11 1-16-1-23 13-39 31-46 52-27 68 33 153 34 154 0 0 0 1 0 1 0 0 1-2 3-3 2-2 6 1 9 7 3 5 12 13 20 17l14 8c9 4 10 13 3 19l-20 19c-6 7-16 5-20-3l-8-15c-4-9-12-18-17-21-4-3-7-7-4-9l4-4c-1-1-2-2-3-3-2-3-67-96-37-175 10-26 29-48 57-64 1-8 7-15 15-18l39-12-1-30c0-6 3-11 7-15-3-19-7-63 17-93 14-18 34-27 61-28 1 0 3 0 4 0 90 0 100 75 108 135 1 6 1 11 2 16 6 41 20 70 41 82 11 6 23 7 37 5-17-30-20-61-3-74 18-14 55 0 81 34z m-34 27c-9-12-23-18-30-12-5 4-6 13-2 22 4-1 8-2 12-4 5-2 12 0 15 6 2 6-1 13-6 15-2 1-4 2-6 2 8 6 17 8 22 4 7-6 5-21-5-33z"/>
<glyph glyph-name="flag" unicode="&#65;" d="M438 478c-16-2-37-5-59-5-35 0-67 8-98 15-33 7-66 14-101 14-71 0-95-15-97-17l-5-4 0-460 24 0 0 215c9 4 32 10 78 10 32 0 63-12 95-19 34-7 68-14 105-14 22 0 42 3 58 5 9 1 17 2 24 3l0 261c-7-2-15-3-24-4z"/>
<glyph glyph-name="packages" unicode="&#66;" d="M262 424l-79 78-152-105 50-75z m0-205l-181 102-59-59 162-125z m2-36l-84-74-103 70 1-66 184-104 181 106 0 58-104-65z m0 36l76-82 158 119-53 65z m248 173l-149 110-99-78 181-102z"/>
<glyph glyph-name="people1" unicode="&#67;" d="M359 177c-13 5-33 6-42 9-6 3-16 5-19 9-3 4-3 32-3 32 0 0 8 7 11 15 3 8 5 30 5 30 0 0 1 0 2 0 2 0 6 1 9 12 2 12 7 19 5 28-1 6-3 7-5 7 0 0-1 0-1 0 0 0 6 9 6 41 0 33-25 65-72 65-46 0-72-32-72-65 0-32 7-41 7-41 0 0-1 0-2 0-1 0-4-1-5-7-1-9 4-16 6-28 2-11 6-12 9-12 1 0 1 0 1 0 0 0 2-22 6-30 3-8 11-15 11-15 0 0 0-28-3-32-3-4-13-6-19-9-9-3-30-4-42-9-13-4-51-22-51-73l309 0c0 51-39 69-51 73z m-229 14c10 6 20 6 27 7 0 0 4 6-9 9 0 0-19 5-21 7-3 3-1 18-1 18 0 0 26 1 37 10-18 26-8 56-12 84-3 28-20 46-52 46 0 0 0 0-1 0-31 0-47-18-51-46-4-28 7-61-11-84 10-9 34-9 37-9 0 0 0 0 0 0 0 0 1-16-1-19-2-2-9-5-13-6-10-2-20-5-29-8-8-3-25-20-25-42l90 0c2 9 19 25 35 33z m285-33l89 0c0 21-16 39-24 42-9 3-20 6-29 8-5 1-11 4-13 6-3 3-1 19-1 19 0 0 0 0 0 0 3 0 27 0 37 9-18 23-7 56-11 84-4 28-20 46-51 46-1 0-1 0-1 0-32 0-49-18-53-46-3-28 6-58-11-84 10-9 37-10 37-10 0 0 1-15-1-18-2-2-21-7-21-7-14-3-10-9-10-9 8-1 18-1 28-7 16-8 33-24 35-33z"/>
<glyph glyph-name="photo" unicode="&#68;" d="M463 67l-412 0c-24 0-43 19-43 43l0 238c0 24 19 44 43 44l11 0c0 12 9 21 21 21l22 0c12 0 21-9 21-21l22 0c0 0 12 1 21 11l22 21c0 0 8 11 21 11l87 0c14 0 22-11 22-11l21-21c10-10 22-11 22-11l97 0c24 0 43-20 43-44l0-238c2-24-17-43-41-43z m21 281c0 12-9 22-21 22l-100 0c-4 0-21 3-35 17l-23 23-1 2c0 0-2 1-4 1l-86 0c-2 0-4-2-5-2l-1-1-22-23c-14-14-32-16-35-17l-45 0c0 0 0 0-1 0l-21 0c0 0 0 0 0 0l-32 0c-12 0-22-9-22-21l0-238c0-12 10-22 22-22l411 0c12 0 22 10 22 22l0 237z m-227-238c-66 0-119 53-119 119 0 66 53 119 119 119 66 0 119-53 119-119 0-66-53-119-119-119z m0 217c-54 0-98-44-98-98 0-54 44-97 98-97 54 0 98 43 98 97 0 54-44 98-98 98z m0-152c-30 0-54 24-54 54 0 30 24 55 54 55 30 0 54-25 54-55 0-30-24-54-54-54z m0 87c-18 0-32-15-32-33 0-18 14-32 32-32 18 0 32 15 32 32 0 18-14 33-32 33z m-152 43l-43 0c-6 0-11 5-11 11l0 22c0 6 5 10 11 10l43 0c6 0 11-4 11-10l0-22c0-6-5-11-11-11z"/>
<glyph glyph-name="preview" unicode="&#69;" d="M256 302c0 0 0 0 0 0 0 0 0 0 0 0-22-1-39-18-39-39 0-22 17-39 39-39 0 0 0 0 0 0 0 0 0 0 0 0 22 0 39 17 39 39 0 21-17 39-39 39z m233-7c-48 39-130 97-233 98 0 0 0 0 0 0 0 0 0 0 0 0-103-2-185-59-233-98-3-2-18-14-19-30 0-11 5-19 13-26 39-38 126-107 239-107 0 0 0 0 0 0 0 0 0 0 0 0 114 0 200 69 239 107 8 7 13 15 13 26-1 16-16 28-19 30z m-233-133c-56 0-100 45-100 101 0 55 44 101 100 101 56 0 100-46 100-101 0-56-44-101-100-101z"/>
<glyph glyph-name="settings" unicode="&#74;" d="M485 215l-18 19c0 1 0 1 0 1 0 5 1 9 1 13 0 2 0 3 0 4 0 4 0 7 0 10 0 2 0 3-1 4 0 2 0 5 0 7l18 19c9 9 25 22 20 34l-20 48c-5 12-25 10-38 10l-26 1c-2 3-4 5-6 8 0 0-1 0-1 0 0 1-1 2-2 2-1 2-2 3-3 4-2 2-4 3-6 5-2 3-5 6-8 8 0 0-1 0-1 0 0 0 0 1 0 1l-1 26c0 13 2 33-10 38l-48 20c-12 5-25-11-34-19l-19-19c-5 0-9 1-13 1-2 0-3 0-4 0-3 0-6 0-9 0-3 0-7-1-11-1 0 0-1 0-1 0 0 0 0 0-1 0l-19 19c-10 8-22 24-34 20l-49-20c-12-5-9-25-10-38l0-27c-1 0-1-1-1-1-3-2-7-5-10-8-1-1-2-2-3-3-2-2-5-5-7-7-1-1-2-2-3-3-1-2-3-3-4-5l-27-1c-13 0-33 2-37-9l-20-49c-5-12 11-24 20-33l18-20c0-3 0-6 0-9 0 0 0-1 0-1-1-5-1-10-1-16 0-2 1-4 1-7 0-1 0-3 0-5 0 0 0 0 0-1l-18-19c-9-9-25-22-20-34l20-49c5-11 25-9 37-9l27-1c0-1 0-1 1-1 2-4 5-7 8-10 1-1 2-2 3-3 2-2 5-4 7-6 1-1 2-2 3-3 2-2 3-3 5-4l1-27c0-13-2-33 9-38l49-20c12-5 24 11 34 20l19 18c0 0 0 0 1 0 2 0 5 0 7 0 1 0 2 0 2 0 1 0 3 0 4 0 1 0 2 0 4 0 3 0 6 0 10 0 1 0 2 0 4 0 2 0 4 0 6 0l20-18c9-9 21-25 33-20l49 20c12 5 9 25 10 38l1 27c2 2 4 3 6 5 1 1 1 1 1 1 1 1 2 2 2 2 2 1 3 3 4 4 2 2 4 3 5 5 3 3 5 5 8 9 0 0 0 0 1 0 0 1 0 1 0 1l26 1c13 0 33-2 38 9l20 49c6 12-10 24-19 33z m-116 39c0-59-48-107-107-107-60 0-107 48-107 107 0 60 47 107 107 107 59 0 107-48 107-107z"/>
<glyph glyph-name="shower" unicode="&#75;" d="M449 256l-22 0 0 186c0 35-29 63-63 63-35 0-64-28-64-63l0-13c-28-6-50-32-50-62 0-7 6-13 13-13l100 0c7 0 13 6 13 13 0 30-22 56-50 62l0 13c0 21 17 37 38 37 20 0 37-16 37-37l0-186-346 0c-19 0-36-16-36-36 0-17 13-32 29-35l12-103c3-23 22-41 45-42l0-19c0-7 6-13 13-13l50 0c7 0 13 6 13 13l0 19 143 0 0-19c0-7 6-13 13-13l49 0c7 0 13 6 13 13l0 19c23 1 42 19 45 42l12 103c16 3 29 18 29 35 0 20-16 36-36 36z m-102 124l-69 0c5 14 19 24 35 24 16 0 29-9 34-24z m-192-347l-24 0 0 7 24 0z m218 0l-24 0 0 7 24 0z m45 52c-1-11-10-19-21-19-54 0-235 0-289 0-11 0-21 8-22 19l-12 100 356 0z m31 126c-19 0-378 0-394 0-6 0-10 4-10 9 0 6 5 10 10 10l394 0c6 0 10-5 10-10 0-5-4-9-10-9z"/>
<glyph glyph-name="students" unicode="&#76;" d="M257 443l-248-135 248-136 249 136z m159-202l-159-95-158 95 0-99 158-86 159 86z m45 86l46 0 0-181-46 0z"/>
<glyph glyph-name="school" unicode="&#77;" d="M88 319l31 0 0 32-31 0z m125 31l32 0 0 32-32 0z m63 0l31 0 0 32-31 0z m62 0l32 0 0 32-32 0z m-125 63l32 0 0 31-32 0z m63 0l31 0 0 31-31 0z m62 0l32 0 0 31-32 0z m-125-188l32 0 0 32-32 0z m63 0l31 0 0 32-31 0z m62 0l32 0 0 32-32 0z m-125-63l32 0 0 32-32 0z m125 0l32 0 0 32-32 0z m-125-62l32 0 0 31-32 0z m125 0l32 0 0 31-32 0z m94 31l32 0 0 31-32 0z m0 94l0-31 32 0 0 31z m0-156l32 0 0 31-32 0z m-219 219l32 0 0 31-32 0z m63 0l31 0 0 31-31 0z m62 0l32 0 0 31-32 0z m-250-32l31 0 0 32-31 0z m0-62l31 0 0 31-31 0z m0-63l31 0 0 31-31 0z m0-62l31 0 0 31-31 0z m188 93l31 0 0 32-31 0z m219-125c0-17-14-31-31-31l-407 0c-18 0-32 14-32 31l0 345c0 17 14 31 32 31l94 0 0 62c0 18 14 32 31 32l219 0c17 0 31-14 31-32l0-187 32 0c17 0 31-14 31-32l0-219z m-344 345l-94 0 0-345 94 0z m250 93l-219 0 0-438 94 0 0 94 31 0 0-94 94 0z m63-219l-32 0 0-219 32 0z"/>
<glyph glyph-name="teachers" unicode="&#78;" d="M283 346c0-14-11-25-25-25-13 0-24 11-24 25 0 13 11 24 24 24 14 0 25-11 25-24z m21-103c-6 22-24 38-46 38-21 0-39-16-45-38z m-132 150c0-9-6-15-14-15-8 0-15 6-15 15 0 8 7 14 15 14 8 0 14-6 14-14z m187-53c-12 0-23-8-29-21l58 0c-5 13-16 21-29 21z m15 53c0-9-6-15-15-15-8 0-14 6-14 15 0 8 6 14 14 14 9 0 15-6 15-14z m91 89l-191 0 0 27-31 0 0-27-191 0 0-296-40 0 0-57 152 0-28-105 30-8 17 67 151 0 18-67 29 8-27 105 151 0 0 57-39 0 0 296z m-106-59c17 0 30-14 30-30 0-17-13-31-30-31-16 0-30 14-30 31 0 16 14 30 30 30z m0-67c26 0 48-24 48-52l-95 0c0 29 21 52 47 52z m-101 30c23 0 40-18 40-40 0-22-18-40-40-40-21 0-40 18-40 40 0 22 18 40 40 40z m0-89c35 0 63-31 64-69l-127 0c1 38 29 69 63 69z m-100 126c16 0 30-14 30-30 0-17-14-31-30-31-17 0-30 14-30 31 0 16 13 30 30 30z m0-67c26 0 47-24 47-52l-95 0c1 29 21 52 48 52z m172-257l-143 0 9 30 126 0z m159 71l0-25-461 0 0 25z m-331 170c-13 0-24-8-29-21l58 0c-6 13-17 21-29 21z"/>
<glyph glyph-name="announecment" unicode="&#97;" d="M127 31c-17 0-31 14-31 31l0 152c17-2 35-4 52-6-3-56 0-103 9-139 5-20-10-38-30-38z m264 314c31 0 56-24 56-55 0-31-25-55-56-55z m56 0l22 22m-22-133l22-21m-423 151c-18 0-31-14-31-32l0-86c0-17 14-31 31-31 44 0 88-5 131-13l0 176c-43-9-86-14-131-14z m326-247c-10 0-18 8-18 18l0 309c0 11 8 19 18 19 11 0 18-8 18-19l0-309c1-10-7-18-18-18z m-195 261l0-176c62-13 122-35 177-66l0 308c-55-31-115-54-177-66z"/>
<glyph glyph-name="chat" unicode="&#98;" d="M165 338c-84 1-154-51-155-117-1-23 7-45 21-63 24-31-2-84-2-84l77 33c17-5 35-8 54-9 85-1 155 51 156 117 1 66-66 121-151 123m319-64c14 19 22 41 21 64-1 66-71 118-155 116-71-1-131-40-147-91 33-6 64-20 88-40 36-28 55-67 54-108 3 0 6 0 9 0 19 1 38 4 54 9l78-33c0-1-27 52-2 83"/>
<glyph glyph-name="notifications" unicode="&#107;" d="M256 224l-53-193c-6-26-48-15-42 11l76 262c-14 7-23 21-23 37 0 23 17 42 42 42 24 0 42-19 42-42 0-16-9-30-23-37l75-262c7-26-35-37-42-11z m-212 253c16 24 51 2 35-23-43-68-45-156 0-227 14-23-19-47-35-23-26 40-40 88-40 137 0 48 14 96 40 136z m91-52c16 22 51 0 33-27-24-34-23-82 2-117 16-23-19-45-35-24-35 51-35 117 0 168z m332 52c27-40 41-88 41-136 0-49-14-97-41-137-15-24-49 0-35 23 46 72 44 159 0 227-15 25 20 47 35 23z m-91-52c35-51 35-117 0-168-15-21-50 2-34 25 24 34 26 82 1 117-17 26 18 48 33 26z"/>
<glyph glyph-name="notifications-small" unicode="&#99;" d="M300 53c0 0 0 0 0 0 0-26-20-46-45-46-25 0-45 20-45 45 0 0 0 1 0 1-144 4-181 27-181 56 0 9 4 17 13 25 69 76 89 55 89 167 0 75 3 144 93 156-2 4-3 9-3 13 0 19 15 34 34 34 19 0 34-15 34-34 0-4-1-9-3-13 90-12 93-81 93-156 0-113 21-91 89-168 9-7 13-15 13-24 0-28-38-52-181-56z m-45-23c12 0 23 10 23 22l0 1c-8 0-15-1-23-1-8 0-15 0-23 1l0-1c0-12 11-22 23-22z m0 452c-6 0-11-6-11-12 0-6 5-11 11-11 6 0 11 5 11 11 0 6-5 12-11 12z m199-367c0 0-17 20-45 45-39 36-52 52-52 141 0 86-5 135-102 135-97 0-102-49-102-135 0-89-13-105-52-140-27-25-45-45-45-45-4-4-4-6-4-7 0-1 2-34 203-34 201 0 203 33 203 34 0 1 0 3-4 6z"/>
<glyph glyph-name="people" unicode="&#100;" d="M257 240c-73 0-133 60-133 133 0 73 60 132 133 132 73 0 132-59 132-132 0-73-59-133-132-133z m0 245c-62 0-113-50-113-112 0-62 51-113 113-113 62 0 112 51 112 113 0 62-50 112-112 112z m230-475c-6 0-10 5-10 10 0 121-99 220-220 220-121 0-220-99-220-220 0-5-4-10-10-10-5 0-10 5-10 10 0 64 25 124 70 170 46 45 106 70 170 70 64 0 124-25 170-70 45-46 70-106 70-170-1-5-5-10-10-10z"/>
<glyph glyph-name="recent" unicode="&#114;" d="M49 296c20 107 115 189 228 189 128 0 232-104 232-231 0-128-104-232-232-232-90 0-168 51-206 126l24 0c36-62 104-105 182-105 117 0 211 95 211 211 0 116-94 211-211 211-102 0-187-73-206-169l-22 0z m218-50l109-64 11 18-100 59 0 141-21 0 0-154z m-211-14l53 64-106 0z"/>
<glyph glyph-name="programs" unicode="&#70;" d="M360 182c-27-20-61-32-97-34l95-138 5 80 79-27z m-296-119l79 27 5-80 95 137c-37 2-71 13-100 33z m372 262c0 98-83 177-186 177-102 0-185-79-185-177 0-60 31-113 79-145 28-20 62-31 99-33 2 0 5 0 8 0 4 0 8 0 12 1 37 2 70 14 98 34 45 32 75 84 75 143z m-70 0c0-61-52-111-116-111-64 0-116 49-116 111 0 61 52 111 116 111 64-1 116-50 116-111z"/>
<glyph glyph-name="report" unicode="&#71;" d="M467 42l0 401c0 10-9 19-19 19l-77 0c-10 0-19-9-19-19l0-401m-38 0l0 267c0 10-9 19-19 19l-77 0c-10 0-19-9-19-19l0-267m-38 0l0 133c0 11-8 19-19 19l-76 0c-11 0-19-8-19-19l0-134"/>
<glyph glyph-name="smiley" unicode="&#72;" d="M256 0c-141 0-256 115-256 256 0 141 115 256 256 256 141 0 256-115 256-256 0-141-115-256-256-256z m0 495c-132 0-239-107-239-239 0-132 107-240 239-240 132 0 240 108 240 240 0 132-108 239-240 239z m0-415c-97 0-176 79-176 176l16 0c0-88 72-160 160-160 88 0 160 72 160 160l16 0c0-97-79-176-176-176z m-88 206c-20 0-36 16-36 36 0 20 16 36 36 36 20 0 36-16 36-36 0-20-16-36-36-36z m0 55c-11 0-19-8-19-19 0-11 8-19 19-19 11 0 19 8 19 19 0 11-8 19-19 19z m176-55c-20 0-36 16-36 36 0 20 16 36 36 36 20 0 36-16 36-36 0-20-16-36-36-36z m0 55c-11 0-19-8-19-19 0-11 8-19 19-19 11 0 19 8 19 19 0 11-8 19-19 19z"/>
<glyph glyph-name="mood" unicode="&#113;" d="M75 365c40 0 72 32 72 71 0 40-32 72-72 72-39 0-71-33-71-72 0-39 32-71 71-71z m0 5c36 0 66 30 66 66 0 36-30 66-66 66-36 0-66-30-66-66 0-36 30-66 66-66z m-25 80c3 0 5 3 5 6 0 3-2 6-5 6-4 0-6-3-6-6 0-3 2-6 6-6z m51 0c3 0 6 3 6 6 0 3-3 6-6 6-3 0-6-3-6-6 0-3 3-6 6-6z m-26-46c-20 0-31 12-31 12l0-6c0 0 11-11 31-11 20 0 32 11 32 11l0 6c0 0-12-12-32-12z"/>
<glyph glyph-name="sleep" unicode="&#79;" d="M175 301c0-27-22-48-48-48-27 0-49 21-49 48 0 27 22 49 49 49 26 0 48-22 48-49z m0-48c86 0 172 0 259 0-92 88-167 84-259 0z m291 64l0-97-421 0 0 162-32 0 0-259 32 0 0 32 421 0 0-32 33 0 0 194z"/>
<glyph glyph-name="requests" unicode="&#82;" d="M111 306c1 0 2-1 3-1 2-1 4-1 6 1l49 49c2 2 2 5 0 8-3 2-3 7 0 9l13 14c3 3 8 3 10 0l4-4 32 32c8 8 8 20 0 28l-42 42c-8 8-20 8-28 0l-32-32 3-3c4-4 4-9 0-13l-10-10c-4-4-9-4-13 0-2 2-5 2-6 0l-50-50c-2-2-2-5 0-7 2-1 2-4 0-7-64-95-18-141-18-141 5 42 41 80 75 85 1 0 2 0 4 0z m333-207l-258 239-47-47 239-258c13-14 35-14 49-1l18 19c14 13 13 35-1 48z m-343-15c-15-14-15-37 0-51 14-15 37-15 51 0l103 102-50 54z m392 277l-55-56c-5-5-11-6-17-4l-31 12c-4 1-8 5-9 9l-12 31c-2 6-1 12 4 17l55 56c-29 7-61-1-84-24-25-26-32-63-20-94l-36-36 54-50 34 34c31-12 69-5 94 20 23 23 31 55 23 85z"/>
<glyph glyph-name="photos" unicode="&#83;" d="M24 384c-1 0-3-1-3-3l0-336c0-1 2-2 3-2l464 0c1 0 3 1 3 2l0 336c0 2-2 3-3 3z m175-85l69-120c1-1 3-1 4 0l59 41c3 2 7 1 8-2l108-125c1-2 0-5-3-5l-377 0c-3 0-5 3-3 6l129 205c1 3 4 3 6 0z m196-22c17 0 32 15 32 32 0 18-15 32-32 32-18 0-32-14-32-32 0-17 14-32 32-32z m-331 192l0-21 384 0 0 21z m-21-42l0-22 426 0 0 22z"/>
<glyph glyph-name="cases" unicode="&#84;" d="M491 427l-86 0 0 64c0 12-8 21-21 21l-256 0c-13 0-21-9-21-21l0-64-86 0c-12 0-21-9-21-22l0-384c0-12 9-21 21-21l470 0c12 0 21 9 21 21l0 384c0 13-9 22-21 22z m-342 42l214 0 0-42-214 0z m128-277c-6 0-15 0-21 0-6 0-15 0-21 0l0 192 42 0z m0-43c0-12-8-21-21-21-13 0-21 9-21 21 0 13 8 22 21 22 13 0 21-9 21-22z m-234 235l170 0 0-190c-62 7-119 26-170 56z m426-341l-426 0 0 183c51-28 108-47 170-53l0-24c0-23 20-42 43-42 23 0 43 19 43 42l0 24c62 6 119 23 170 53z m-170 151l0 190 170 0 0-134c-51-30-108-49-170-56z"/>
<glyph glyph-name="password" unicode="&#85;" d="M256 512c-141 0-256-115-256-256 0-141 115-256 256-256 141 0 256 115 256 256 0 141-115 256-256 256z m2-470c-119 0-215 95-215 214 0 118 96 214 215 214 118 0 214-96 214-214 0-118-96-214-214-214z m83 295l-36 0 0 28c0 14-10 25-23 25l-52 0c-13 0-23-11-23-25l0-28-36 0c-12 0-23-10-23-23l0-169c0-13 11-23 23-23l170 0c13 0 23 10 23 23l0 169c0 13-10 23-23 23z m-113 16c0 8 6 14 13 14l30 0c7 0 13-6 13-14l0-16-56 0 0 16z m99-181c0-9-7-15-15-15l-112 0c-9 0-15 6-15 15l0 112c0 8 6 15 15 15l112 0c8 0 15-7 15-15l0-112z m-71 91c-12 0-22-10-22-22 0-5 2-10 5-13l0-1c0 0 6-5 6-13l0-18c0-6 5-11 11-11 6 0 11 5 11 11l0 19c0 1 1 5 4 11 0 0 0 0 0 0 4 4 7 9 7 15 0 12-10 22-22 22z"/>
<glyph glyph-name="approvals" unicode="&#80;" d="M424 506l-334 0c-39 0-72-34-72-74l0-255c0-40 33-72 72-72l121 0 144-97 0 97 69 0c39 0 70 32 70 72l0 255c0 40-30 74-70 74z m29-329c0-16-12-31-29-31l-111 0 0-59-90 59-133 0c-17 0-29 15-29 31l0 255c0 16 12 30 29 30l335 0c16 0 28-14 28-30z m-100 216c-3 3-9 3-12 0l-112-112c-3-3-8-3-12 0l-53 48c-4 3-9 3-12-1l-16-19c-3-4-3-9 0-12l83-75c3-3 8-3 11 0l139 139c4 4 4 9 1 13z"/>
<glyph glyph-name="tasks" unicode="&#81;" d="M473 345l-322 0c-16 0-29 15-29 33 0 18 13 32 29 32l322 0c16 0 29-14 29-32 0-18-13-33-29-33z m-380 33c0-24-19-42-42-42-23 0-42 18-42 42 0 23 19 41 42 41 23 0 42-18 42-41z m380-155l-322 0c-16 0-29 15-29 33 0 18 13 33 29 33l322 0c16 0 29-15 29-33 0-18-13-33-29-33z m-380 33c0-23-19-42-42-42-23 0-42 19-42 42 0 23 19 42 42 42 23 0 42-19 42-42z m380-154l-322 0c-16 0-29 14-29 32 0 18 13 33 29 33l322 0c16 0 29-15 29-33 0-18-13-32-29-32z m-380 32c0-23-19-41-42-41-23 0-42 18-42 41 0 24 19 42 42 42 23 0 42-18 42-42z"/>
<glyph glyph-name="billing" unicode="&#86;" d="M205 512l-115-116 0-396 39 20 32-16 32 16 31-16 32 16 32-16 31 16 32-16 32 16 39-20 0 512z m-4-27l0-84-84 0z m206-459l-24 12-32-16-32 16-31-16-32 16-32-16-31 16-32-16-32 16-24-12 0 359 111 0 0 111 191 0z m-175 320l0-19c-9-2-16-5-21-11-11-10-10-23-10-33l0-1c0-21 9-33 31-37l0-70c-4 1-8 3-11 6-5 5-5 11-5 14l-15 0c0-4-1-16 9-26 5-5 13-9 22-11l0-26 16 0 0 24c3 0 5-1 8-1 3 0 5 1 8 1l0-24 16 0 0 26c11 2 21 7 27 14 13 13 13 29 12 37l0 2c0 8-7 35-39 44l0 55c4-2 7-4 10-6 6-6 6-13 6-14l8 0 7 0c1 1 1 14-10 25-5 5-12 9-21 12l0 19-16 0 0-17c-3 1-5 1-8 1-3 0-5 0-8 0l0 16z m-16-64l0 1c0 8 0 17 6 22 2 3 6 4 10 6l0-50c-16 4-16 13-16 21z m40-111c-3 0-5 0-8 1l0 71c3 0 5 0 8 0 3 0 5-1 8-1l0-70c-3-1-5-1-8-1z m48 40l0-2c0-7 0-18-8-26-4-4-9-7-16-9l0 65c22-9 24-28 24-28z m-48 103c3 0 5 0 8 0l0-56c-3 0-5 0-8 0-3 0-5 1-8 1l0 55c3 0 5 0 8 0z"/>
<glyph glyph-name="resend" unicode="&#73;" d="M498 325l0 166-62-62c-46 45-108 73-178 73-139 0-251-112-251-251 0-139 112-251 251-251 94 0 175 51 218 127l-51 29c-33-58-95-97-167-97-105 0-192 86-192 192 0 106 87 192 192 192 53 0 101-21 136-56l-63-62z"/>
<glyph glyph-name="time-table" unicode="&#87;" d="M256 448c-124 0-224-100-224-224 0-124 100-224 224-224 124 0 224 100 224 224 0 124-100 224-224 224z m0-404c-99 0-180 81-180 180 0 99 81 180 180 180 99 0 180-81 180-180 0-99-81-180-180-180z m211 324c8 14 13 31 13 48 0 53-43 96-96 96-31 0-58-15-76-37 66-14 123-53 159-107z m-263 107c-18 22-45 37-76 37-53 0-96-43-96-96 0-17 5-34 13-48 36 54 93 93 159 107z m52-251l0 128-32 0 0-160 128 0 0 32z"/>
<glyph glyph-name="att-report" unicode="&#88;" d="M464 448l-144 0c0 35-29 64-64 64-35 0-64-29-64-64l-144 0c-9 0-16-7-16-16l0-416c0-9 7-16 16-16l416 0c9 0 16 7 16 16l0 416c0 9-7 16-16 16z m-208 32c18 0 32-14 32-32 0-18-14-32-32-32-18 0-32 14-32 32 0 18 14 32 32 32z m192-448l-384 0 0 384 64 0 0-48c0-9 7-16 16-16l224 0c9 0 16 7 16 16l0 48 64 0z m-224 51l-103 118 30 30 73-58 137 122 30-30z"/>
<glyph glyph-name="attendance" unicode="&#89;" d="M480 208l-144-144-48 48-32-32 80-80 176 176z m-256-80l160 0 0 58c-34 19-78 33-128 37l0 26c35 20 64 69 64 119 0 80 0 144-96 144-96 0-96-64-96-144 0-50 29-99 64-119l0-26c-109-9-192-63-192-127l224 0 0 32z"/>
<glyph glyph-name="lead" unicode="&#90;" d="M504 314l-157 158c-10 10-26 10-36 0l-25-25c-5-4-7-11-7-18 0-7 2-13 7-18l7-7c-8-3-20-9-34-16-14 10-25 19-32 24 9 10 8 26-1 35l-25 25c-10 10-26 10-36 0l-158-158c-10-10-9-26 1-36l24-25c5-5 11-7 18-7 6 0 12 2 17 7 6-8 15-21 26-35l-25-25c-1-2-2-4-2-6 0-2 1-5 2-6l30-31 0 0 13-12 0 0 54-54 0 0 12-12 37-37c1-1 3-2 6-2 2 0 4 1 6 2l26 27c16-12 28-21 29-22 2-1 4-1 5-1 2 0 5 1 6 2l115 116c0 0 0 0 0 0 0 0 0 0 0 0l31 30c3 3 3 7 1 11-1 1-11 14-24 32l17 35 12-12c5-5 11-7 18-7 7 0 13 2 18 7l24 25c5 5 8 11 8 18 0 7-3 13-8 18z m-448-48c-3-4-9-4-12 0l-24 24c-4 3-4 9 0 12l157 158c0 0 0 0 0 0 2 1 4 2 6 2 2 0 5-1 6-2l25-25c3-3 3-8 0-12z m30-79l17 17c7-9 15-18 22-27l-14-14z m55-55l-18 18 13 14c6-7 12-14 17-19z m36-36l-24 24 12 12c8-7 17-14 26-22z m43-42l-31 30 15 15c12-9 24-19 34-27z m201 140l-20-19-78 78c-4 4-9 4-12 0-4-3-4-8 0-12l78-78-24-25-79 79c-3 3-8 3-12 0-3-3-3-9 0-12l79-79-24-24-79 79c-3 3-9 3-12 0-4-4-4-9 0-12l79-79-32-31c-19 14-84 62-114 91-17 18-40 46-59 71 0 1-1 2-1 2-1 0-1 0-1 0-13 18-25 34-31 42l135 135c6-5 17-12 29-22-13-9-28-19-41-33-20-20-34-35-41-45-4-6-12-17-4-26 2-1 5-5 39-8 0 0 0 0 0 0 2 0 3 0 4 1 18 8 51 21 63 19 20-2 49 15 65 23 0 0 0-1 1-1 30-30 77-94 92-114z m-18 51c-19 26-44 57-62 75-1 1-3 2-4 2 0 1 0 1 0 2-3 4-8 6-12 3-1 0-3-1-5-3-12-6-41-22-55-21-19 3-59-15-70-20-8 1-17 2-23 3 4 6 14 19 42 47 35 35 78 53 93 58l113-113z m89 45l-24-24c-3-4-9-4-12 0l-140 140c0 0-1 0-1 0l-17 17c-1 2-2 4-2 6 0 2 1 5 2 6l25 25c1 1 4 2 6 2 2 0 4-1 6-2l157-158c2-2 3-4 3-6 0-2-1-5-3-6z"/>
<glyph glyph-name="appointments" unicode="&#48;" d="M109 502c-41 0-74-33-74-74 0-41 33-74 74-74 41 0 74 33 74 74 0 41-33 74-74 74z m0-123c-27 0-49 22-49 49 0 27 22 49 49 49 27 0 49-22 49-49 0-27-22-49-49-49z m0-246l-62 0c-6 0-12 6-12 13l0 110c0 7-5 13-12 13-7 0-12-6-12-13l0-110c0-20 16-37 36-37l13 0 0-74-13 0c-6 0-12-5-12-12 0-7 6-12 12-12l50 0c6 0 12 5 12 12 0 7-6 12-12 12l-13 0 0 74 25 0c10 0 12-7 12-12 0-7 6-13 12-13 7 0 13 6 13 13 0 14-10 36-37 36z m295 369c-41 0-74-33-74-74 0-41 33-74 74-74 40 0 74 33 74 74 0 41-34 74-74 74z m0-123c-27 0-49 22-49 49 0 27 21 49 49 49 27 0 49-22 49-49 0-27-22-49-49-49z m85-110c-6 0-12-6-12-13l0-110c0-7-5-13-12-13l-62 0c-27 0-36-22-36-36 0-7 5-13 12-13 7 0 12 6 12 13 0 5 3 12 12 12l25 0 0-74-12 0c-7 0-13-5-13-12 0-7 6-12 13-12l49 0c7 0 12 5 12 12 0 7-5 12-12 12l-12 0 0 74 12 0c20 0 37 16 37 37l0 110c0 7-6 13-13 13z m-85 61c-27 0-49-22-49-49l0-56-37-12 0 19 12 0c7 0 12 5 12 12 0 7-5 12-12 12l-147 0c-7 0-13-5-13-12 0-7 6-12 13-12l12 0 0-19-37 12 0 56c0 27-22 49-49 49-27 0-49-22-49-49l0-98c0-12 7-22 18-24l83-21 22-108c2-11 12-19 24-19l98 0c12 0 22 8 25 19l21 108 84 21c10 2 18 12 18 24l0 98c0 27-22 49-49 49z m-209-233l-12 61-99 25 0 98c0 14 11 24 25 24 14 0 24-10 24-24l0-74 62-20z m98 107l0-169-74 0 0 197 74 0z m135-21l-98-25-12-61 0 90 61 20 0 74c0 14 11 24 25 24 13 0 24-10 24-24z"/>
<glyph glyph-name="calendar" unicode="&#49;" d="M465 460l-68 0 0 31c0 9-7 16-15 16-9 0-16-7-16-16l0-31-94 0 0 31c0 9-7 16-16 16-9 0-16-7-16-16l0-31-94 0 0 31c0 9-7 16-16 16-8 0-15-7-15-16l0-31-68 0c-23 0-42-19-42-42l0-371c0-23 19-42 42-42l418 0c23 0 42 19 42 42l0 371c0 23-19 42-42 42z m11-413c0-6-5-10-11-10l-418 0c-6 0-10 4-10 10l0 371c0 6 4 10 10 10l68 0 0-31c0-9 7-16 16-16 8 0 15 7 15 16l0 31 95 0 0-31c0-9 7-16 15-16 9 0 16 7 16 16l0 31 94 0 0-31c0-9 7-16 16-16 8 0 16 7 16 16l0 31 68 0c5 0 10-4 10-10l0-371z m-361 271l63 0 0-47-63 0z m0-78l63 0 0-47-63 0z m0-78l63 0 0-47-63 0z m110 0l63 0 0-47-63 0z m0 78l63 0 0-47-63 0z m0 78l63 0 0-47-63 0z m110-156l63 0 0-47-63 0z m0 78l63 0 0-47-63 0z m0 78l63 0 0-47-63 0z"/>
<glyph glyph-name="mykids" unicode="&#50;" d="M136 316c37 0 66 30 66 67 0 23 9 44-9 56-11 7-57 10-71 10-17 0-38-13-49-23-15-12-3-23-3-43-1-37 29-67 66-67z m-47 73c13 3 21-1 21-1l20 10c0 0-10-15-1-10 21 7 44 4 56 1 0-2 1-5 1-7 0-28-22-50-49-50-27 0-49 22-49 50 1 2 1 5 1 7z m371 3c0 4-1 8-1 11-3 24-24 71-84 70-51-2-62-40-65-64-2-6-3-12-3-18-67-12-60-80-19-81-4 35 13 57 19 64 6-37 38-65 76-65 37 0 67 25 75 59 7-11 17-33 15-58 64 1 32 74-13 82z m-77-61c-30 0-54 24-55 54 11 4 19 23 19 23 0 0 7-2 7-24 11-4 31 34 31 34l0-30c13-3 52 1 52 1l2-1c0-1 0-1 0-2 0-30-25-55-56-55z m16-24l-59 0-80-96-77 94-88 0-92-101 19-19 66 56 0-109 13 0 0-83-8 0 0-10 38 0 0 93 14 0 0-93 38 0 0 10-8 0 0 83 16 0 0 107 53-54 21 5 12-3 60 68 3-27-55-95 64 0 0-83-9 0 0-9 39 0 0 92 14 0 0-92 38 0 0 9-8 0 0 83 49 0-49 95 3 33 46-62 31 8-74 100z"/>
<glyph glyph-name="refer" unicode="&#52;" d="M421 436c0 3-3 6-7 6-3 0-6-3-6-6l1-29-5 4c-40 40-94 62-151 62-1 0-2 0-3 0-57-1-112-24-152-65-2-2-2-7 0-9 2-2 6-2 9 0 79 81 208 82 289 3l4-4-29 0c-3 0-6-3-6-6 0-4 3-7 6-7l44 1c3 0 6 3 6 6z m-13-322c-3 2-7 2-9 0-79-81-209-82-289-4l-5 5 29 0c4 0 7 3 7 6 0 4-3 6-7 6l-44 0c-3 0-6-3-6-7l1-44c0-3 3-6 6-6 4 0 6 3 6 6l0 29 4-4c41-40 95-62 152-62 0 0 1 0 2 0 58 1 112 24 153 65 2 4 2 7 0 10z m-217 80c-21 17-44 29-52 33l0 31c5 4 7 10 7 17l0 37c0 23-18 40-40 40l-8 0c-22 0-40-18-40-40l0-37c0-7 3-13 8-17l0-31c-9-4-31-16-52-33-6-5-9-12-9-19l0-26c0-4 3-6 6-6 3 0 6 2 6 6l0 26c0 4 2 7 5 9 22 19 47 32 52 34 2 1 4 4 4 7l0 36c0 2-1 4-3 5-3 2-4 6-4 9l0 38c-1 15 12 27 27 27l8 0c16 0 28-12 28-27l0-38c0-4-2-7-5-9-2-1-3-3-3-5l0-36c0-3 2-6 5-7 5-3 29-15 52-34 3-2 4-5 4-9l0-26c0-3 3-6 7-6 3 0 6 3 6 6l0 26c0 7-3 14-9 19z m307 0c-21 17-43 29-52 33l0 31c5 4 8 10 8 17l0 37c0 23-18 40-40 40l-8 0c-23 0-40-18-40-40l0-37c0-7 2-13 7-17l0-31c-8-4-31-16-52-33-6-5-9-12-9-19l0-26c0-4 3-6 6-6 4 0 6 2 6 6l0 26c0 4 2 7 5 9 23 19 47 32 52 34 3 1 4 4 4 7l0 36c0 2-1 4-2 5-3 2-5 6-5 9l0 38c0 15 12 27 28 27l8 0c15 0 27-12 27-27l0-38c0-4-1-7-4-9-2-1-3-3-3-5l0-36c0-3 2-6 4-7 5-3 30-15 52-34 3-2 5-5 5-9l0-26c0-3 3-6 6-6 3 0 6 3 6 6l0 26c0 7-3 14-9 19z"/>
<glyph glyph-name="school-finder" unicode="&#53;" d="M258 288c32 0 57 26 57 57 0 31-26 57-57 57-31 0-56-26-56-57 0-31 25-57 56-57z m0 98c23 0 41-18 41-41 0-22-18-40-41-40-22 0-40 18-40 40 0 23 18 41 40 41z m157-187l-58 0 25 36c46 62 40 165-15 219-29 29-68 46-110 46-41 0-80-16-110-46-54-54-61-157-14-219l25-36-61 0-89-186 496 0z m-270 46c-42 56-36 148 13 197 27 27 62 41 99 41 37 0 72-14 99-41 49-49 55-141 12-198l-111-160-80 115z m-39-62l62 0 89-128 88 128 59 0 74-154-445 0z"/>
</font>
</defs>
</svg>
